<svg xmlns="http://www.w3.org/2000/svg" viewBox="0 0 102.08 89.01"><defs><style>.cls-1{fill:#ecf0f3;}.cls-2{fill:none;stroke:#6ddfeb;stroke-linecap:round;stroke-miterlimit:10;stroke-width:5.67px;}</style></defs><title>bath</title><g id="Layer_2" data-name="Layer 2"><g id="Layer_1-2" data-name="Layer 1"><path class="cls-1" d="M102.08,44.5A44.56,44.56,0,0,1,57.57,89c-13.13,0-22.28-8-30.22-16.58C21,65.54,13.07,57,13.07,44.5A44.55,44.55,0,0,1,57.57,0c9.51,0,13.61,5.59,17.58,11a52.55,52.55,0,0,0,5.32,6.49,74.27,74.27,0,0,0,6.85,5.75C94.23,28.63,102.08,34.71,102.08,44.5Z"/><path class="cls-2" d="M7.57,44.5H79.44a0,0,0,0,1,0,0v7.77a15,15,0,0,1-15,15H22.57a15,15,0,0,1-15-15V44.5a0,0,0,0,1,0,0Z"/><line class="cls-2" x1="2.83" y1="44.5" x2="84.18" y2="44.5"/><line class="cls-2" x1="67.78" y1="71.73" x2="67.78" y2="67.48"/><line class="cls-2" x1="19.36" y1="71.73" x2="19.36" y2="68.03"/><path class="cls-2" d="M76.56,44.2V38.12c.93-8.39-9.18-8.54-9.5-2.21"/></g></g></svg>