<svg xmlns="http://www.w3.org/2000/svg" viewBox="0 0 90.87 80.76"><defs><style>.cls-1{fill:#ecf0f3;}.cls-2{fill:none;stroke:#72e0eb;stroke-linecap:round;stroke-miterlimit:10;stroke-width:5px;}</style></defs><title>bath</title><g id="Layer_2" data-name="Layer 2"><g id="Layer_1-2" data-name="Layer 1"><path class="cls-1" d="M80.76,40.38A40.43,40.43,0,0,1,40.38,80.76c-11.92,0-20.22-7.23-27.42-15-5.78-6.26-13-14-13-25.34A40.42,40.42,0,0,1,40.38,0C49,0,52.73,5.07,56.33,10a47.87,47.87,0,0,0,4.82,5.89,67,67,0,0,0,6.22,5.21C73.64,26,80.76,31.49,80.76,40.38Z"/><path class="cls-2" d="M11.76,31.73H83.64a0,0,0,0,1,0,0V39.5a15,15,0,0,1-15,15H26.76a15,15,0,0,1-15-15V31.73a0,0,0,0,1,0,0Z"/><line class="cls-2" x1="7.03" y1="31.73" x2="88.37" y2="31.73"/><line class="cls-2" x1="71.98" y1="58.95" x2="71.98" y2="54.7"/><line class="cls-2" x1="23.56" y1="58.95" x2="23.56" y2="55.25"/><path class="cls-2" d="M80.76,31.42V25.34c.92-8.39-9.19-8.53-9.51-2.21"/></g></g></svg>