<svg xmlns="http://www.w3.org/2000/svg" viewBox="0 0 80.76 80.76"><defs><style>.cls-1{fill:#ecf0f3;}.cls-2,.cls-3{fill:#72e0eb;}.cls-3,.cls-4{stroke:#72e0eb;stroke-miterlimit:10;}.cls-4{fill:#fff;}</style></defs><title>dishwasher</title><g id="Layer_2" data-name="Layer 2"><g id="Layer_1-2" data-name="Layer 1"><path class="cls-1" d="M80.76,40.38A40.43,40.43,0,0,1,40.38,80.76c-11.92,0-20.22-7.23-27.42-15-5.78-6.26-13-14-13-25.34A40.42,40.42,0,0,1,40.38,0C49,0,52.73,5.07,56.33,10a47.87,47.87,0,0,0,4.82,5.89,67,67,0,0,0,6.22,5.21C73.64,26,80.76,31.49,80.76,40.38Z"/><path class="cls-2" d="M52.18,61.74c-5,0-10,0-15,0a2.8,2.8,0,0,1-3-3c0-10,0-20,0-30,0-2,1-3,3-3h30c2,0,3,1,3,3q0,15,0,30a2.78,2.78,0,0,1-3,3C62.2,61.71,57.19,61.74,52.18,61.74ZM68.47,36v-.49c0-2.28,0-4.55,0-6.83,0-1-.25-1.2-1.24-1.2h-30c-1,0-1.24.24-1.24,1.26V36h1.7c0-.65,0-1.26,0-1.87a5.13,5.13,0,0,1,4.1-4.82c.69-.13,1.51-.37,1.92.56l.66-.31c1.28-.52,2.14-.44,2.7.18.83-.18,1.58-.4,2.34-.49s1.11.21,1.11,1.05c0,1.7,0,3.4,0,5.1V36h1.28c.15-1.42.29-2.81.43-4.2a.88.88,0,0,1,.92-.9c1.39,0,2.79,0,4.18,0a.85.85,0,0,1,.9.85l.09.8L58.64,36h1.7c.13-1.34.25-2.63.39-3.92.11-1,.34-1.18,1.31-1.19h3.5c.9,0,1.16.24,1.25,1.13.14,1.32.27,2.65.41,4Zm0,9.68V41.23H36V53.11h1.65c0-1.39,0-2.73,0-4.07A6,6,0,0,1,42.84,43,2.3,2.3,0,0,1,44,43c.27.12.42.52.62.79.34-.17.71-.37,1.1-.52A9.44,9.44,0,0,1,47,43c1.13-.24,1.46-.08,1.86.77a26.43,26.43,0,0,1,2.79-.78c1.1-.19,1.42.16,1.42,1.26v8.93h2.09A7.81,7.81,0,0,1,58.43,44,7.59,7.59,0,0,1,63,42.92,7.75,7.75,0,0,1,68.42,45.69Zm-.92,7.48a.52.52,0,0,0,.57-.43,6,6,0,0,0,.24-3.44,6,6,0,1,0-11.43,3.41.56.56,0,0,0,.61.46c1.58,0,3.17,0,4.75,0C63.44,53.17,67,53.15,67.5,53.17ZM36,58.33c-.22,1.31.09,1.68,1.36,1.68H67.05c1.26,0,1.58-.38,1.34-1.68Zm6.74-13.56a4.06,4.06,0,0,0-3.32,3.51c-.12,1.48,0,3,0,4.46,0,.14.14.39.22.39,1,0,2.08,0,3.13,0ZM47,53.13V44.69a11.48,11.48,0,0,0-1.4.63,2,2,0,0,0-1.14,2c.1,1.73,0,3.47,0,5.21v.61ZM51.3,44.6c-.64.34-1.19.62-1.72.93a1.64,1.64,0,0,0-.79,1.64c.05,1.77,0,3.54,0,5.32v.62H51.3Zm2.54-12L53.51,36H56.9l-.35-3.36ZM65.46,36l-.33-3.37H62.41L62.07,36ZM41.9,36V31.11c-2.22.5-2.83,2.6-2.46,4.91ZM58.39,54.9c2.37,2.5,6.7,1.9,8.09,0ZM48.75,31.1c-1.22.24-1.69.77-1.69,1.9v3h1.69Zm-3.44,0a1.74,1.74,0,0,0-1.69,1.82V36h1.69Zm7.85,8.32h4.08c-.05-.47-.07-.91-.14-1.34,0-.12-.18-.32-.28-.32-1.15,0-2.31,0-3.49,0Zm8.58,0h4.07l-.18-1.69H63.41C61.81,37.75,61.81,37.75,61.74,39.44ZM53.1,56.58h4l.41,0c-.46-.53-.86-1-1.28-1.5a.45.45,0,0,0-.29-.16H53.1Zm-13.79,0c-.33-.5-.63-.94-.93-1.37-.09-.12-.21-.28-.31-.29-.7,0-1.4,0-2.09,0v1.67Zm-.46-17.1c-.3-.52-.56-1-.84-1.46a.52.52,0,0,0-.33-.23c-.56,0-1.12,0-1.7,0v1.7Zm1.4,15.45a4,4,0,0,0,2.48,1.55V54.9Zm4.31,0A3.9,3.9,0,0,0,47,56.43V54.91Zm4.27,0a3.88,3.88,0,0,0,2.46,1.54V54.91ZM41.88,39.28V37.8h-2A2.85,2.85,0,0,0,41.88,39.28Zm5.23-1.5c-.07.71.62,1.33,1.62,1.49V37.78Zm13,0H58.82L59,39.43h1ZM45.3,39.28V37.75H43.65C43.63,38.49,44.3,39.09,45.3,39.28Zm23.12.16V37.8H67.36l.17,1.64Zm-17.91,0h.91l.15-1.65H50.51ZM68.44,55.67l-1,.86h1Z"/><path class="cls-3" d="M76.76,68.62v2.86c0,1.26-.35,1.61-1.58,1.61H28.06c-1.19,0-1.56-.37-1.56-1.54,0-1,0-2,0-3a3.57,3.57,0,0,1-3.24-2.48,4.06,4.06,0,0,1-.15-1.21q0-27.18,0-54.38a5.67,5.67,0,0,1,6-6H74.2a5.76,5.76,0,0,1,6,6q0,27.15,0,54.3C80.19,66.94,79.2,68,76.76,68.62Zm1.14-48H25.4c0,.32,0,.59,0,.86v43c0,1.5.3,1.8,1.78,1.8h49c1.43,0,1.74-.31,1.74-1.76V20.59Zm0-2.39V10.69c0-2.5-1.34-3.84-3.83-3.84H29.26c-2.53,0-3.89,1.34-3.9,3.84q0,3.38,0,6.73c0,.25,0,.5.05.78ZM74.47,68.58H28.85v2.17H74.47Z"/><path class="cls-4" d="M77.9,18.2H25.41c0-.28-.05-.53-.05-.78q0-3.36,0-6.73c0-2.5,1.37-3.84,3.9-3.84H74.07c2.49,0,3.82,1.34,3.83,3.84V18.2ZM35.63,9.11h-6.5c-1.09,0-1.47.38-1.48,1.47,0,1.33,0,2.65,0,4,0,1,.43,1.42,1.4,1.42q6.57,0,13.14,0c1,0,1.44-.46,1.44-1.46,0-1.27,0-2.55,0-3.82s-.36-1.6-1.58-1.61Zm19.45,3.46A3.43,3.43,0,0,0,58.47,16a3.48,3.48,0,0,0,3.45-3.46,3.43,3.43,0,0,0-3.49-3.4A3.38,3.38,0,0,0,55.08,12.57ZM49.4,9.13a3.41,3.41,0,0,0-3.47,3.33A3.45,3.45,0,0,0,49.3,16a3.5,3.5,0,0,0,3.49-3.43A3.45,3.45,0,0,0,49.4,9.13Zm23.94,2.29c-.38,0-.76,0-1.14,0a1.09,1.09,0,0,0-1.12,1A1,1,0,0,0,72,13.63a15.52,15.52,0,0,0,2.64,0,1,1,0,0,0,.94-1.18,1.06,1.06,0,0,0-1.11-1C74.1,11.4,73.72,11.42,73.34,11.42Zm-6.9,2.32a13.75,13.75,0,0,0,1.44-.12,1,1,0,0,0,.85-1.18,1,1,0,0,0-1-1,21.19,21.19,0,0,0-2.52,0,1,1,0,0,0-1,1.07,1,1,0,0,0,.84,1.11C65.52,13.7,66,13.7,66.44,13.74Z"/><path class="cls-4" d="M74.47,68.58v2.17H28.85V68.58Z"/><path class="cls-3" d="M35.63,9.11h6.42c1.22,0,1.58.38,1.58,1.61s0,2.55,0,3.82c0,1-.42,1.45-1.44,1.46q-6.57,0-13.14,0c-1,0-1.39-.45-1.4-1.42,0-1.33,0-2.65,0-4,0-1.09.39-1.47,1.48-1.47Zm5.66,2.37H30v2.18H41.29Z"/><path class="cls-3" d="M55.08,12.57a3.38,3.38,0,0,1,3.35-3.44,3.43,3.43,0,0,1,3.49,3.4A3.48,3.48,0,0,1,58.47,16,3.43,3.43,0,0,1,55.08,12.57Zm4.53,0a1.11,1.11,0,0,0-1.09-1.13,1.09,1.09,0,0,0-1.14,1.16A1.14,1.14,0,0,0,58.5,13.7,1.18,1.18,0,0,0,59.61,12.55Z"/><path class="cls-3" d="M49.4,9.13a3.45,3.45,0,0,1,3.39,3.43A3.5,3.5,0,0,1,49.3,16a3.45,3.45,0,0,1-3.37-3.53A3.41,3.41,0,0,1,49.4,9.13Zm-.07,4.56a1.19,1.19,0,0,0,1.16-1.08,1.15,1.15,0,0,0-1.12-1.19,1.12,1.12,0,0,0-1.14,1.07A1.15,1.15,0,0,0,49.33,13.69Z"/><path class="cls-3" d="M73.34,11.42c.38,0,.76,0,1.14,0a1.06,1.06,0,0,1,1.11,1,1,1,0,0,1-.94,1.18,15.52,15.52,0,0,1-2.64,0,1,1,0,0,1-.93-1.18,1.09,1.09,0,0,1,1.12-1C72.58,11.4,73,11.42,73.34,11.42Z"/><path class="cls-3" d="M66.44,13.74c-.46,0-.92,0-1.37-.12a1,1,0,0,1-.84-1.11,1,1,0,0,1,1-1.07,21.19,21.19,0,0,1,2.52,0,1,1,0,0,1,1,1,1,1,0,0,1-.85,1.18A13.75,13.75,0,0,1,66.44,13.74Z"/><path class="cls-4" d="M41.29,11.48v2.18H30V11.48Z"/><path class="cls-4" d="M59.61,12.55A1.18,1.18,0,0,1,58.5,13.7a1.14,1.14,0,0,1-1.12-1.12,1.09,1.09,0,0,1,1.14-1.16A1.11,1.11,0,0,1,59.61,12.55Z"/><path class="cls-4" d="M49.33,13.69a1.15,1.15,0,0,1-1.1-1.2,1.12,1.12,0,0,1,1.14-1.07,1.15,1.15,0,0,1,1.12,1.19A1.19,1.19,0,0,1,49.33,13.69Z"/></g></g></svg>