<svg xmlns="http://www.w3.org/2000/svg" viewBox="0 0 84.83 84.83"><defs><style>.cls-1{fill:#f4f5f6;}.cls-2{fill:none;stroke:#6ddfeb;stroke-linecap:round;stroke-miterlimit:10;stroke-width:4.25px;}.cls-3{fill:#6ddfeb;}</style></defs><title>icon3</title><g id="Layer_2" data-name="Layer 2"><g id="Layer_1-2" data-name="Layer 1"><path class="cls-1" d="M84.83,42.41A42.48,42.48,0,0,1,42.41,84.83c-12.51,0-21.24-7.6-28.8-15.8C7.54,62.46,0,54.28,0,42.41A42.46,42.46,0,0,1,42.41,0c9.06,0,13,5.33,16.76,10.49a49.21,49.21,0,0,0,5.06,6.19,73,73,0,0,0,6.53,5.48C77.35,27.28,84.83,33.08,84.83,42.41Z"/><line class="cls-2" x1="5.44" y1="31.55" x2="76.48" y2="22.32"/><path class="cls-2" d="M68,31.49a.6.6,0,0,0-1.14,0L56.07,62.28l-.13.49c.05,10.84,21.81,10.75,21.77-.1h0Z"/><path class="cls-3" d="M40.5,26.69l2.87-14.44,0-.22c-.67-4.59-9.88-3.25-9.21,1.34h0Z"/><path class="cls-2" d="M15.18,38.05A.6.6,0,0,0,14,38L3.27,68.83l-.12.49c0,10.84,21.81,10.75,21.76-.09h0Z"/><circle class="cls-1" cx="38.77" cy="13.23" r="2.11"/><polygon class="cls-3" points="56.2 60.42 77.4 60.42 75.92 66.75 68.56 71.46 59.14 68.96 56.05 65.13 56.2 60.42"/><polygon class="cls-3" points="3.79 67.19 24.99 67.19 23.52 73.52 16.16 78.23 6.73 75.73 3.64 71.9 3.79 67.19"/></g></g></svg>