<svg xmlns="http://www.w3.org/2000/svg" viewBox="0 0 84.83 84.83"><defs><style>.cls-1{fill:#f4f5f6;}.cls-2{fill:none;stroke:#6ddfeb;stroke-linecap:round;stroke-miterlimit:10;stroke-width:4.25px;}</style></defs><title>icon2</title><g id="Layer_2" data-name="Layer 2"><g id="Layer_1-2" data-name="Layer 1"><path class="cls-1" d="M84.83,42.41A42.48,42.48,0,0,1,42.41,84.83c-12.51,0-21.24-7.6-28.8-15.8C7.54,62.46,0,54.28,0,42.41A42.46,42.46,0,0,1,42.41,0c9.06,0,13,5.33,16.76,10.49a49.21,49.21,0,0,0,5.06,6.19,73,73,0,0,0,6.53,5.48C77.35,27.28,84.83,33.08,84.83,42.41Z"/><path class="cls-2" d="M67.5,16H23.2A7.13,7.13,0,0,0,16,23.12V52.34L9,69.85a.44.44,0,0,0,.61.55l14.85-7.57,43.06-.08a7.13,7.13,0,0,0,7.16-7.09V23.12A7.14,7.14,0,0,0,67.5,16Z"/><line class="cls-2" x1="26.33" y1="28.78" x2="48.94" y2="28.78"/><line class="cls-2" x1="38.91" y1="39.59" x2="65.25" y2="39.59"/><line class="cls-2" x1="49.63" y1="50.89" x2="25.06" y2="50.89"/></g></g></svg>