<svg xmlns="http://www.w3.org/2000/svg" viewBox="0 0 94.06 84.83"><defs><style>.cls-1{fill:none;stroke:#6ddfeb;stroke-linecap:round;stroke-miterlimit:10;stroke-width:4.25px;}.cls-2{fill:#f4f5f6;}</style></defs><title>icon1</title><g id="Layer_2" data-name="Layer 2"><g id="Layer_1-2" data-name="Layer 1"><path class="cls-1" d="M69.45,31.74c-3.29,3,1.65,10,1.65,10"/><path class="cls-1" d="M80.72,35.17c14.28-5,11.51,13.64,9.8,15.56"/><path class="cls-1" d="M78.27,49.94c-7.25,2.68,2.52,9.3,2.52,9.3"/><path class="cls-2" d="M88.6,42.41A42.47,42.47,0,0,1,46.19,84.83c-12.51,0-21.24-7.6-28.8-15.8C11.32,62.46,3.78,54.28,3.78,42.41A42.46,42.46,0,0,1,46.19,0c9.06,0,13,5.33,16.75,10.49A50.21,50.21,0,0,0,68,16.68a73,73,0,0,0,6.53,5.48C81.13,27.28,88.6,33.08,88.6,42.41Z"/><path class="cls-1" d="M61.46,72.19c7,.71,11.55,1.69,15.07-5.49"/><path class="cls-1" d="M63.91,66.18C57.86,71,64.17,77.6,70,80"/><path class="cls-1" d="M49.2,67.39c.87,6.58,16.53,14.8,16.53,14.8"/><path class="cls-1" d="M70.49,65.23c13.24,2.08,32.1-9.52,10.56-24.4a24.1,24.1,0,0,0-12.38,1.73C61.92,45.33,59,40,59,40"/><path class="cls-1" d="M55.68,21.74c17.9-4.26,28.88,3.63,29.83,12.47"/><path class="cls-1" d="M33.09,29.52C41.82,23.66,50.67,29.84,52,35"/><path class="cls-1" d="M34.15,21.74c0,5.22,2.45,6.08,2.45,6.08"/><path class="cls-1" d="M58.37,28.38c-8,.06-7.56,4-7.56,4"/><path class="cls-1" d="M21.45,29.12c1.8-16.52,17-14.87,22.07-8.86"/><path class="cls-1" d="M63,20.56C52.69,6.29,41.8,18.61,41.8,18.61"/><path class="cls-1" d="M32.07,60.73c-7.63,2-16.53,2.6-22-1.74C-1.55,49.76-2.63,28.75,21.9,25.77"/><path class="cls-1" d="M9.43,40.34c.33,6.87,8.84,3.93,8.84,3.93"/><path class="cls-1" d="M27.35,30.33a23.06,23.06,0,0,1-1,5.19c-3.13.82-8.75,3-8.07,16.53"/><path class="cls-1" d="M31.91,39.27a13.39,13.39,0,0,0-5.57-3.75"/><path class="cls-1" d="M39,34.81c.86,5.44,0,7.64,0,7.64"/><path class="cls-1" d="M49.66,41.59c-21.43-1.18-25.21,21-4.88,26,0,0,8.11,1,13.39-3.78s10.88-10.64,17.18-8.43"/><path class="cls-1" d="M61.25,52.93c-9.46.4-9.93.32-9.14-7.72"/><path class="cls-1" d="M41.39,58.69C43,49.94,52.5,51.52,52.5,51.52"/></g></g></svg>