<svg xmlns="http://www.w3.org/2000/svg" viewBox="0 0 85.63 84.83"><defs><style>.cls-1{fill:#f4f5f6;}.cls-2{fill:none;stroke:#72dee9;stroke-miterlimit:10;stroke-width:4.25px;}</style></defs><title>icon4</title><g id="Layer_2" data-name="Layer 2"><g id="Layer_1-2" data-name="Layer 1"><path class="cls-1" d="M84.83,42.41A42.48,42.48,0,0,1,42.41,84.83c-12.51,0-21.24-7.6-28.8-15.8C7.54,62.46,0,54.28,0,42.41A42.46,42.46,0,0,1,42.41,0c9.06,0,13,5.33,16.76,10.49a49.21,49.21,0,0,0,5.06,6.19,73,73,0,0,0,6.53,5.48C77.35,27.28,84.83,33.08,84.83,42.41Z"/><line class="cls-2" x1="0.06" y1="67.66" x2="85.63" y2="67.66"/><rect class="cls-2" x="14.47" y="22.11" width="14.47" height="45.35"/><rect class="cls-2" x="36.95" y="29.26" width="14.47" height="38.2"/><rect class="cls-2" x="59.44" y="45.49" width="14.47" height="21.97"/></g></g></svg>