<svg xmlns="http://www.w3.org/2000/svg" viewBox="0 0 81.19 80.76"><defs><style>.cls-1{fill:#ecf0f3;}.cls-2,.cls-3{fill:#72e0eb;}.cls-2{stroke:#72e0eb;stroke-miterlimit:10;stroke-width:2px;}</style></defs><title>shower</title><g id="Layer_2" data-name="Layer 2"><g id="Layer_1-2" data-name="Layer 1"><path class="cls-1" d="M80.76,40.38A40.43,40.43,0,0,1,40.38,80.76c-11.92,0-20.22-7.23-27.42-15-5.78-6.26-13-14-13-25.34A40.42,40.42,0,0,1,40.38,0C49,0,52.73,5.07,56.33,10a47.87,47.87,0,0,0,4.82,5.89,67,67,0,0,0,6.22,5.21C73.64,26,80.76,31.49,80.76,40.38Z"/><path class="cls-2" d="M35.82,26.42v-3.2A11.87,11.87,0,0,1,47.48,11.28c10.21-.1,20.41,0,30.61,0a1.89,1.89,0,0,1,2.1,1.88C80.2,14.27,79.36,15,78,15H48.29a8.31,8.31,0,0,0-6.84,3.05,8.07,8.07,0,0,0-1.85,5c0,.92,0,1.83,0,2.74,0,.5.16.64.64.7a21.29,21.29,0,0,1,13.14,6.37,21.51,21.51,0,0,1,6.4,15.41q0,2,0,4a1.86,1.86,0,0,1-2,2.06H18a2.13,2.13,0,0,1-1.89-.65,2,2,0,0,1-.46-1c0-3.09-.26-6.21.55-9.24,2.34-8.79,8-14.29,16.73-16.55C33.86,26.66,34.8,26.58,35.82,26.42ZM56,50.54c.37-7.91-2.48-14.17-9.4-18-6.54-3.64-13.21-3.26-19.36,1-5.85,4.06-8.16,9.93-7.76,17Z"/><path class="cls-3" d="M24.47,61.94c0,.65,0,1.29,0,1.94a1.88,1.88,0,0,1-3.75,0c0-1.32,0-2.64,0-4a1.88,1.88,0,0,1,3.76,0C24.48,60.64,24.47,61.29,24.47,61.94Z"/><path class="cls-3" d="M34.55,62c0,.64,0,1.29,0,1.94a1.88,1.88,0,0,1-3.76,0c0-1.32,0-2.64,0-3.95a1.88,1.88,0,0,1,3.76,0C34.57,60.6,34.55,61.27,34.55,62Z"/><path class="cls-3" d="M40.86,61.91c0-.63,0-1.25,0-1.87a1.85,1.85,0,0,1,1.86-1.88,1.83,1.83,0,0,1,1.9,1.9c0,1.24,0,2.49,0,3.74a1.85,1.85,0,0,1-1.85,1.89,1.88,1.88,0,0,1-1.91-1.91C40.85,63.15,40.86,62.53,40.86,61.91Z"/><path class="cls-3" d="M54.72,61.93c0,.64,0,1.29,0,1.94a1.85,1.85,0,0,1-1.85,1.82A1.88,1.88,0,0,1,51,63.85c0-1.3,0-2.59,0-3.88a1.89,1.89,0,0,1,3.77,0C54.73,60.63,54.72,61.28,54.72,61.93Z"/><path class="cls-3" d="M29.51,72c0,.65,0,1.3,0,1.94a1.85,1.85,0,0,1-1.85,1.82,1.88,1.88,0,0,1-1.91-1.84c0-1.29,0-2.59,0-3.88a1.89,1.89,0,0,1,3.77,0C29.52,70.72,29.51,71.36,29.51,72Z"/><path class="cls-3" d="M39.59,72.06c0,.65,0,1.3,0,1.94a1.88,1.88,0,0,1-3.76,0c0-1.35,0-2.69,0-4a1.88,1.88,0,0,1,3.76,0C39.61,70.72,39.59,71.39,39.59,72.06Z"/><path class="cls-3" d="M49.68,72.06c0,.65,0,1.3,0,1.94a1.88,1.88,0,0,1-3.75,0q-.06-2,0-4a1.88,1.88,0,0,1,3.75,0C49.69,70.72,49.68,71.39,49.68,72.06Z"/><path class="cls-2" d="M56,50.54H19.46c-.4-7.07,1.91-12.94,7.76-17,6.15-4.29,12.82-4.67,19.36-1C53.5,36.37,56.35,42.63,56,50.54Z"/></g></g></svg>