<svg xmlns="http://www.w3.org/2000/svg" viewBox="0 0 97.21 80.76"><defs><style>.cls-1{fill:#ecf0f3;}.cls-2{fill:#72e0eb;stroke:#72e0eb;stroke-miterlimit:10;}</style></defs><title>tap_outdoor</title><g id="Layer_2" data-name="Layer 2"><g id="Layer_1-2" data-name="Layer 1"><path class="cls-1" d="M80.76,40.38A40.43,40.43,0,0,1,40.38,80.76c-11.92,0-20.22-7.23-27.42-15-5.78-6.26-13-14-13-25.34A40.42,40.42,0,0,1,40.38,0C49,0,52.73,5.07,56.33,10a47.87,47.87,0,0,0,4.82,5.89,67,67,0,0,0,6.22,5.21C73.64,26,80.76,31.49,80.76,40.38Z"/><path class="cls-2" d="M95,34.49q-4.74,0-9.48,0c-1.28,0-1.73.47-1.74,1.75,0,1,0,1.95,0,2.94a1,1,0,0,1-1,1h-12c0-.39,0-.71,0-1,0-1.35-.49-1.8-1.82-1.82-.87,0-1.74,0-2.61,0H64.52a1,1,0,0,1-1-1c0-2,0-3.89,0-5.78,0-1.38-.48-1.84-1.88-1.84H58.83a1,1,0,0,1-1-1V21a1,1,0,0,1,1.1-1c1.48.09,2.93.15,4.34.37,2.48.39,4.92,1,7.4,1.42a5.94,5.94,0,0,0,6.16-2.54,5.77,5.77,0,0,0,.39-6.39A5.77,5.77,0,0,0,71.5,9.6a27.86,27.86,0,0,0-2.86.45c-2.82.45-5.63,1-8.46,1.31-2.4.22-2.42.05-2.46-2.41a2.71,2.71,0,0,0,0-.29c-.06-1.09-.54-1.58-1.64-1.59-1.44,0-2.89,0-4.33,0a2.7,2.7,0,0,0-2.67,2.7v.64a1,1,0,0,1-1,1,28.41,28.41,0,0,1-4-.22c-2.64-.41-5.23-1.06-7.86-1.55A5.84,5.84,0,0,0,30,12.2a5.79,5.79,0,0,0-.08,6.89A5.73,5.73,0,0,0,36,21.78c2.25-.37,4.5-.79,6.72-1.3A21.26,21.26,0,0,1,48,20.06a1,1,0,0,1,1,1v6.6a1,1,0,0,1-1,1h-2a2.64,2.64,0,0,0-2.62,2.66v5a1,1,0,0,1-1,1c-1.49,0-2.93,0-4.36,0s-1.83.45-1.85,1.87c0,.76,0,1.53,0,2.44-.53,0-.91,0-1.29,0-2.48,0-5,0-7.44.13a18.62,18.62,0,0,0-17.24,18.5v8c0,1.87.34,2.23,2.17,2.23h13c1.84,0,2.21-.37,2.21-2.22V61c0-1.61.38-2,2-2h5.7c.28,0,.56,0,.92.07v2c0,1.94.32,2.27,2.23,2.27H67.87c2.65,0,2.65,0,2.89-2.6,0-.06,0-.12.09-.24H82.69a1,1,0,0,1,1,1c0,1,0,1.92,0,2.87,0,1.37.44,1.83,1.76,1.83q4.74,0,9.47,0c1.25,0,1.74-.51,1.74-1.77q0-14.12,0-28.23C96.7,35,96.2,34.49,95,34.49ZM49,17c-.09,0-.17.11-.25.11-4.22-.31-8.22.92-12.29,1.68a4.11,4.11,0,0,1-3.17-.3A3.33,3.33,0,0,1,32,14.44a3.39,3.39,0,0,1,3.91-1.92c1.64.32,3.29.62,4.91,1a23.83,23.83,0,0,0,7.08.72H49ZM36,55.11a1,1,0,0,1-1,1H32.5c-1.26,0-2.51,0-3.77,0a4.21,4.21,0,0,0-4.18,4.19c0,2.06,0,4.12,0,6.19v1.09H13.15c-.05,0-.12-.1-.12-.14.07-3.57-.45-7.16.36-10.68a15.69,15.69,0,0,1,13.66-12c2.6-.21,5.23-.08,7.93,0a1,1,0,0,1,1,1ZM57.78,14.39c.1-.05.19-.13.27-.12,4.38.34,8.54-.91,12.76-1.74a3.39,3.39,0,0,1,3.81,1.6,3.28,3.28,0,0,1-3.55,4.8c-2.62-.52-5.23-1.1-7.86-1.53a38.82,38.82,0,0,0-4.32-.25c-.35,0-.7,0-1.11,0ZM47.29,31.65h12.2a1,1,0,0,1,1,1V36.3a1,1,0,0,1-1,1H47.29a1,1,0,0,1-1-1V32.68A1,1,0,0,1,47.29,31.65ZM66.75,60.4H40a1,1,0,0,1-1-1v-18a1,1,0,0,1,1-1H66.75a1,1,0,0,1,1,1v18A1,1,0,0,1,66.75,60.4Zm15.89-2.9H71.85a1,1,0,0,1-1-1V44.28a1,1,0,0,1,1-1H82.64a1,1,0,0,1,1,1V56.47A1,1,0,0,1,82.64,57.5Zm7.58,5.82h0a3.53,3.53,0,0,1-3.53-3.53V41a3.53,3.53,0,0,1,3.53-3.53h0A3.53,3.53,0,0,1,93.75,41v18.8A3.53,3.53,0,0,1,90.22,63.32Z"/></g></g></svg>