<svg xmlns="http://www.w3.org/2000/svg" viewBox="0 0 87.7 80.76"><defs><style>.cls-1{fill:#ecf0f3;}.cls-2{fill:#72e0eb;stroke:#72e0eb;stroke-miterlimit:10;}</style></defs><title>tap_inside</title><g id="Layer_2" data-name="Layer 2"><g id="Layer_1-2" data-name="Layer 1"><path class="cls-1" d="M80.76,40.38A40.43,40.43,0,0,1,40.38,80.76c-11.92,0-20.22-7.23-27.42-15-5.78-6.26-13-14-13-25.34A40.42,40.42,0,0,1,40.38,0C49,0,52.73,5.07,56.33,10a47.87,47.87,0,0,0,4.82,5.89,67,67,0,0,0,6.22,5.21C73.64,26,80.76,31.49,80.76,40.38Z"/><path class="cls-2" d="M47.13,21.22c.51.77,1,1.46,1.43,2.22a8.5,8.5,0,0,1,.89,4.15c0,3.38,0,6.76,0,10.14v.34a.43.43,0,0,0,.52.42l.28-.07q14.52-3.68,29-7.35a6.12,6.12,0,0,1,5.38.85,6,6,0,0,1,2.28,3.53c.46,1.79.47,1.79-1.31,2.21l-.47.12a.42.42,0,0,0-.3.51c.1.45.2.88.28,1.32.13.67-.07,1-.73,1.14q-3,.73-6.07,1.44c-.77.17-1.07,0-1.26-.81-.08-.33-.17-.66-.26-1a.42.42,0,0,0-.52-.31l-3.07.75q-11.55,2.91-23.11,5.81c-.51.13-.69.31-.69.86,0,6.19,0,12.39,0,18.59,0,1.31-.13,1.44-1.46,1.44H30.43c-1.33,0-1.47-.14-1.47-1.43V27.44A8.51,8.51,0,0,1,35.27,19L55,13.84c3.81-1,7.61-2,11.42-3a2.57,2.57,0,1,1,1.28,4.95L47.41,21.13Zm37.92,15a.44.44,0,0,0,.3-.57,7,7,0,0,0-.44-1.07c-1.11-1.87-3-2.52-5.29-1.93L49.36,40.28c-1.16.3-1.48,0-1.48-1.13V31h0a.75.75,0,0,0-.75-.74H31.34a.74.74,0,0,0-.75.75V65.1a.76.76,0,0,0,.75.75H47.13a.75.75,0,0,0,.75-.75V46.57c0-.88.12-1,.92-1.23l31.56-8ZM47,28.62a.84.84,0,0,0,.84-.88,15.43,15.43,0,0,0-.14-1.68A6.83,6.83,0,0,0,45,21.58a1.1,1.1,0,0,1-.39-.85c0-.26.43-.46.69-.67a1,1,0,0,1,.37-.1l17.83-4.71,3.95-1c.46-.12.86-.39.81-.88a1.46,1.46,0,0,0-.54-.93,1.34,1.34,0,0,0-.93,0l-8.4,2.21c-7.56,2-15.12,3.93-22.66,5.94a6.9,6.9,0,0,0-5.17,7.29.86.86,0,0,0,.84.8Zm35.78,10-4.07,1a.43.43,0,0,0-.31.52h0a.44.44,0,0,0,.52.32l4.06-1a.43.43,0,0,0,.32-.52v0A.43.43,0,0,0,82.82,38.58Z"/></g></g></svg>