<svg xmlns="http://www.w3.org/2000/svg" viewBox="0 0 80.76 80.76"><defs><style>.cls-1{fill:#ecf0f3;}.cls-2{fill:#72e0eb;}.cls-2,.cls-3{stroke:#72e0eb;stroke-miterlimit:10;}.cls-3{fill:#fff;}</style></defs><title>wasmachine</title><g id="Layer_2" data-name="Layer 2"><g id="Layer_1-2" data-name="Layer 1"><path class="cls-1" d="M80.76,40.38A40.43,40.43,0,0,1,40.38,80.76c-11.92,0-20.22-7.23-27.42-15-5.78-6.26-13-14-13-25.34A40.42,40.42,0,0,1,40.38,0C49,0,52.73,5.07,56.33,10a47.87,47.87,0,0,0,4.82,5.89,67,67,0,0,0,6.22,5.21C73.64,26,80.76,31.49,80.76,40.38Z"/><path class="cls-2" d="M76.76,68.62v2.86c0,1.26-.35,1.61-1.58,1.61H28.06c-1.19,0-1.56-.37-1.56-1.54,0-1,0-2,0-3a3.57,3.57,0,0,1-3.24-2.48,4.06,4.06,0,0,1-.15-1.21q0-27.18,0-54.38a5.67,5.67,0,0,1,6-6H74.2a5.76,5.76,0,0,1,6,6q0,27.15,0,54.3C80.19,66.94,79.2,68,76.76,68.62Zm1.14-48H25.4c0,.32,0,.59,0,.86v43c0,1.5.3,1.8,1.78,1.8h49c1.43,0,1.74-.31,1.74-1.76V20.59Zm0-2.39V10.69c0-2.5-1.34-3.84-3.83-3.84H29.26c-2.53,0-3.89,1.34-3.9,3.84q0,3.38,0,6.73c0,.25,0,.5.05.78ZM74.47,68.58H28.85v2.17H74.47Z"/><path class="cls-3" d="M77.9,18.2H25.41c0-.28-.05-.53-.05-.78q0-3.36,0-6.73c0-2.5,1.37-3.84,3.9-3.84H74.07c2.49,0,3.82,1.34,3.83,3.84V18.2ZM35.63,9.11h-6.5c-1.09,0-1.47.38-1.48,1.47,0,1.33,0,2.65,0,4,0,1,.43,1.42,1.4,1.42q6.57,0,13.14,0c1,0,1.44-.46,1.44-1.46,0-1.27,0-2.55,0-3.82s-.36-1.6-1.58-1.61Zm19.45,3.46A3.43,3.43,0,0,0,58.47,16a3.48,3.48,0,0,0,3.45-3.46,3.43,3.43,0,0,0-3.49-3.4A3.38,3.38,0,0,0,55.08,12.57ZM49.4,9.13a3.41,3.41,0,0,0-3.47,3.33A3.45,3.45,0,0,0,49.3,16a3.5,3.5,0,0,0,3.49-3.43A3.45,3.45,0,0,0,49.4,9.13Zm23.94,2.29c-.38,0-.76,0-1.14,0a1.09,1.09,0,0,0-1.12,1A1,1,0,0,0,72,13.63a15.52,15.52,0,0,0,2.64,0,1,1,0,0,0,.94-1.18,1.06,1.06,0,0,0-1.11-1C74.1,11.4,73.72,11.42,73.34,11.42Zm-6.9,2.32a13.75,13.75,0,0,0,1.44-.12,1,1,0,0,0,.85-1.18,1,1,0,0,0-1-1,21.19,21.19,0,0,0-2.52,0,1,1,0,0,0-1,1.07,1,1,0,0,0,.84,1.11C65.52,13.7,66,13.7,66.44,13.74Z"/><path class="cls-3" d="M74.47,68.58v2.17H28.85V68.58Z"/><path class="cls-2" d="M35.63,9.11h6.42c1.22,0,1.58.38,1.58,1.61s0,2.55,0,3.82c0,1-.42,1.45-1.44,1.46q-6.57,0-13.14,0c-1,0-1.39-.45-1.4-1.42,0-1.33,0-2.65,0-4,0-1.09.39-1.47,1.48-1.47Zm5.66,2.37H30v2.18H41.29Z"/><path class="cls-2" d="M55.08,12.57a3.38,3.38,0,0,1,3.35-3.44,3.43,3.43,0,0,1,3.49,3.4A3.48,3.48,0,0,1,58.47,16,3.43,3.43,0,0,1,55.08,12.57Zm4.53,0a1.11,1.11,0,0,0-1.09-1.13,1.09,1.09,0,0,0-1.14,1.16A1.14,1.14,0,0,0,58.5,13.7,1.18,1.18,0,0,0,59.61,12.55Z"/><path class="cls-2" d="M49.4,9.13a3.45,3.45,0,0,1,3.39,3.43A3.5,3.5,0,0,1,49.3,16a3.45,3.45,0,0,1-3.37-3.53A3.41,3.41,0,0,1,49.4,9.13Zm-.07,4.56a1.19,1.19,0,0,0,1.16-1.08,1.15,1.15,0,0,0-1.12-1.19,1.12,1.12,0,0,0-1.14,1.07A1.15,1.15,0,0,0,49.33,13.69Z"/><path class="cls-2" d="M73.34,11.42c.38,0,.76,0,1.14,0a1.06,1.06,0,0,1,1.11,1,1,1,0,0,1-.94,1.18,15.52,15.52,0,0,1-2.64,0,1,1,0,0,1-.93-1.18,1.09,1.09,0,0,1,1.12-1C72.58,11.4,73,11.42,73.34,11.42Z"/><path class="cls-2" d="M66.44,13.74c-.46,0-.92,0-1.37-.12a1,1,0,0,1-.84-1.11,1,1,0,0,1,1-1.07,21.19,21.19,0,0,1,2.52,0,1,1,0,0,1,1,1,1,1,0,0,1-.85,1.18A13.75,13.75,0,0,1,66.44,13.74Z"/><path class="cls-3" d="M41.29,11.48v2.18H30V11.48Z"/><path class="cls-3" d="M59.61,12.55A1.18,1.18,0,0,1,58.5,13.7a1.14,1.14,0,0,1-1.12-1.12,1.09,1.09,0,0,1,1.14-1.16A1.11,1.11,0,0,1,59.61,12.55Z"/><path class="cls-3" d="M49.33,13.69a1.15,1.15,0,0,1-1.1-1.2,1.12,1.12,0,0,1,1.14-1.07,1.15,1.15,0,0,1,1.12,1.19A1.19,1.19,0,0,1,49.33,13.69Z"/><path class="cls-2" d="M66.46,43.29a14.84,14.84,0,1,1-14.8-14.74A14.73,14.73,0,0,1,66.46,43.29ZM39.68,47.22c1.32-.33,2.57-.69,3.84-1,3.6-.75,7.15-1,10.53,1a6.94,6.94,0,0,0,3.78.68c2.08-.07,3.88-1,5.75-1.72a.86.86,0,0,0,.39-.56,12.14,12.14,0,0,0-3.78-11.46,12.51,12.51,0,0,0-19.73,3.46A12.34,12.34,0,0,0,39.68,47.22Zm1,2.11A12.28,12.28,0,0,0,52.6,55.91c4.87-.33,9-3.8,10.06-6.81h-.07l-.43.17a11.66,11.66,0,0,1-8.42.37c-.93-.31-1.78-.89-2.72-1.18C47.47,47.32,44.11,48.46,40.69,49.33Z"/></g></g></svg>