<svg xmlns="http://www.w3.org/2000/svg" viewBox="0 0 80.76 82.56"><defs><style>.cls-1{fill:#ecf0f3;}.cls-2{fill:#72e0eb;stroke:#72e0eb;stroke-miterlimit:10;}</style></defs><title>wc</title><g id="Layer_2" data-name="Layer 2"><g id="Layer_1-2" data-name="Layer 1"><path class="cls-1" d="M80.76,42.18A40.43,40.43,0,0,1,40.38,82.56c-11.92,0-20.22-7.23-27.42-15-5.78-6.25-13-14-13-25.33A40.42,40.42,0,0,1,40.38,1.8c8.63,0,12.35,5.07,15.95,10a47.87,47.87,0,0,0,4.82,5.89,68.58,68.58,0,0,0,6.22,5.21C73.64,27.77,80.76,33.29,80.76,42.18Z"/><path class="cls-2" d="M32.41,33.94a48.42,48.42,0,0,1-2.86-12.55c-.33-4.25-.47-8.5-.7-12.8,0,0,0,0-.07,0-2.33-.12-2.43-.24-2.43-2.58,0-1.28,0-2.57,0-3.85S26.84.5,28,.5H72.84C74,.5,74.45,1,74.47,2.16c0,1.46,0,2.92,0,4.38s-.41,2-2,2l-.68,0v4c.81,0,1.63,0,2.45,0,3.41.12,5.25,3.38,3.5,6.2a3.78,3.78,0,0,1-3.3,1.81c-1,0-2,0-3.16,0a51.66,51.66,0,0,1-2.92,13.39c1.19,0,2.23,0,3.27,0a4,4,0,0,1,4,3,4,4,0,0,1-2,4.56,1.26,1.26,0,0,0-.58.77c-.91,7.24-4.94,12.23-11.19,15.61a1.3,1.3,0,0,0-.84,1.35A63.42,63.42,0,0,0,61.93,71a20.48,20.48,0,0,0,2.77,7.22c.88,1.37.07,2.56-1.54,2.55-8.53-.07-17.06,0-25.59,0-1.7,0-2.3-.93-1.45-2.41,2.63-4.62,3.46-9.66,3.54-14.88,0-1.43,0-2.87.06-4.29A1.13,1.13,0,0,0,39,57.9a20.11,20.11,0,0,1-10-10.73,47.18,47.18,0,0,1-1.21-4.75,1.72,1.72,0,0,0-.6-1,4.11,4.11,0,0,1-2-4.5,4,4,0,0,1,4-3C30.18,33.93,31.23,33.94,32.41,33.94ZM69.07,8.6H31.76c0,2,0,3.88,0,5.78.15,6.41.88,12.72,3.21,18.76A1,1,0,0,0,36.1,34q14.32,0,28.63,0c.55,0,.86-.09,1-.69.72-2.67,1.55-5.31,2.21-8,.37-1.51.47-3.09.71-4.72-.87,0-1.56,0-2.24,0a3.88,3.88,0,0,1-3.37-1.86c-1.69-2.78.15-6,3.51-6.15.82,0,1.64,0,2.49,0ZM30.5,42a15.91,15.91,0,0,0,5.34,10.49c6,5.24,13,6.64,20.63,4.6,6.19-1.65,10.79-5.33,13.09-11.5A29.92,29.92,0,0,0,70.44,42ZM60.33,75.08C58.55,70,58.44,64.69,58.4,59.31a25.51,25.51,0,0,1-16,0c0,5.4-.12,10.71-1.89,15.76A2.18,2.18,0,0,0,42.55,78H58.27A2.18,2.18,0,0,0,60.33,75.08ZM70.49,3.25H30.33a1.26,1.26,0,0,0-1.27,1.26h0a1.27,1.27,0,0,0,1.27,1.27H70.49a1.26,1.26,0,0,0,1.26-1.27h0A1.25,1.25,0,0,0,70.49,3.25Zm-20,36h20.4a7.6,7.6,0,0,0,1.07,0,1.29,1.29,0,0,0,.11-2.54,5.76,5.76,0,0,0-1.25-.08H30a8.75,8.75,0,0,0-.89,0c-.89.08-1.41.58-1.41,1.32s.56,1.28,1.48,1.33c.26,0,.53,0,.8,0ZM70.4,17.86c1.27,0,2.55,0,3.83,0,1,0,1.5-.49,1.54-1.26s-.54-1.37-1.52-1.38q-3.8,0-7.59,0c-1,0-1.54.52-1.51,1.37s.51,1.25,1.5,1.27C67.9,17.88,69.15,17.86,70.4,17.86Z"/></g></g></svg>