<svg xmlns="http://www.w3.org/2000/svg" xmlns:xlink="http://www.w3.org/1999/xlink" viewBox="0 0 72.37 38.15"><defs><style>.cls-1{fill:url(#Naamloos_verloop_4);}.cls-2{fill:url(#Naamloos_verloop_4-2);}.cls-3{fill:url(#Naamloos_verloop_4-3);}.cls-4{fill:url(#Naamloos_verloop_4-4);}.cls-5{fill:url(#Naamloos_verloop_4-5);}.cls-6{fill:url(#Naamloos_verloop_4-6);}.cls-7{fill:url(#Naamloos_verloop_4-7);}.cls-8{fill:#6f6f6e;}</style><linearGradient id="Naamloos_verloop_4" x1="7.69" y1="22.79" x2="64.68" y2="22.79" gradientUnits="userSpaceOnUse"><stop offset="0" stop-color="#66f2d7"/><stop offset="1" stop-color="#7fceff"/></linearGradient><linearGradient id="Naamloos_verloop_4-2" x1="16.15" y1="27.01" x2="56.22" y2="27.01" xlink:href="#Naamloos_verloop_4"/><linearGradient id="Naamloos_verloop_4-3" x1="56.13" y1="38.01" x2="56.15" y2="38.01" xlink:href="#Naamloos_verloop_4"/><linearGradient id="Naamloos_verloop_4-4" x1="56.18" y1="37.28" x2="56.2" y2="37.28" xlink:href="#Naamloos_verloop_4"/><linearGradient id="Naamloos_verloop_4-5" x1="51.38" y1="15.46" x2="52.76" y2="15.46" xlink:href="#Naamloos_verloop_4"/><linearGradient id="Naamloos_verloop_4-6" x1="58.09" y1="18.77" x2="61.53" y2="18.77" xlink:href="#Naamloos_verloop_4"/><linearGradient id="Naamloos_verloop_4-7" x1="0" y1="18.93" x2="72.37" y2="18.93" xlink:href="#Naamloos_verloop_4"/></defs><title>halflogo</title><g id="Laag_2" data-name="Laag 2"><g id="Laag_1-2" data-name="Laag 1"><path class="cls-1" d="M64.68,36.19q0,.86-.06,1.68H62c0-.55.06-1.12.06-1.68a4.35,4.35,0,0,0,0-.51A4.91,4.91,0,0,0,62,35a2.32,2.32,0,0,0-.06-.38c-.55-2.83-2.54-5.08-5-7.22-1-.89-2.15-1.76-3.24-2.6a53.85,53.85,0,0,1-4.76-4,37.27,37.27,0,0,1-3.8-4.62c-2.51-3.42-4.32-5.9-8.92-5.9a25.93,25.93,0,0,0-25.89,25.9c0,.57,0,1.13.08,1.68H7.77c0-.54-.08-1.11-.08-1.68A28.52,28.52,0,0,1,36.18,7.7c5.92,0,8.39,3.37,11,7A34.4,34.4,0,0,0,50.73,19a47.23,47.23,0,0,0,4.53,3.8c1.11.87,2.26,1.76,3.34,2.69,2.76,2.39,5.2,5.14,5.88,8.7A10.53,10.53,0,0,1,64.68,36.19Z"/><path class="cls-2" d="M56.22,36.19c0,.32,0,.65,0,1a1.77,1.77,0,0,1,0,.23c0,.16,0,.32,0,.48H53.54q0-.42.06-.84c0-.28,0-.56,0-.84,0-2.5-1.74-4.36-3.91-6.15-.57-.47-1.15-.92-1.73-1.37a35,35,0,0,1-3.32-2.8A26,26,0,0,1,42,22.64c-1.72-2.34-2.85-3.89-5.82-3.89A17.45,17.45,0,0,0,18.75,36.19a10.2,10.2,0,0,0,.14,1.68H16.26a13,13,0,0,1-.11-1.68,20.06,20.06,0,0,1,20-20c4.29,0,6.13,2.52,7.92,5A24.47,24.47,0,0,0,46.49,24c.44.43.93.86,1.45,1.29s1.06.86,1.63,1.29,1.21.94,1.79,1.42C53.9,30.13,56.22,32.61,56.22,36.19Z"/><path class="cls-3" d="M56.14,37.87h0c0,.1,0,.19,0,.28C56.13,38.06,56.14,38,56.14,37.87Z"/><path class="cls-4" d="M56.2,37.16a1.64,1.64,0,0,1,0,.23,1.77,1.77,0,0,0,0-.23Z"/><path class="cls-5" d="M51.38,14.73c.44.49.89,1,1.38,1.46h0C52.26,15.71,51.81,15.22,51.38,14.73Z"/><path class="cls-6" d="M61.53,20.12l-1.1-.86c-.8-.62-1.59-1.23-2.34-1.84.75.6,1.54,1.21,2.34,1.83Z"/><path class="cls-7" d="M72.37,36.19c0,.56,0,1.12,0,1.68h-2.6c0-.55,0-1.12,0-1.68a8.25,8.25,0,0,0,0-.86,0,0,0,0,0,0,0q0-.37-.09-.75a5.58,5.58,0,0,0-.13-.69,3.18,3.18,0,0,0-.13-.51,3.68,3.68,0,0,0-.16-.54,3.63,3.63,0,0,0-.19-.52,7.15,7.15,0,0,0-.45-1,4,4,0,0,0-.26-.5,7.19,7.19,0,0,0-.59-1,31.83,31.83,0,0,0-6.93-6.93c-.65-.52-1.31-1-2-1.54a66.63,66.63,0,0,1-6.07-5.12c-.49-.48-.94-1-1.38-1.46s-.84-1-1.24-1.48c-.79-1-1.51-2-2.22-2.94C44.76,6,42.27,2.6,36.18,2.6A33.63,33.63,0,0,0,2.6,36.19q0,.86.06,1.68H.06Q0,37,0,36.19A36.22,36.22,0,0,1,36.18,0C43.59,0,46.71,4.26,50,8.77a46.15,46.15,0,0,0,4.58,5.58c.42.42.86.83,1.32,1.24s.94.81,1.43,1.22l.75.61c.75.61,1.54,1.22,2.34,1.84l1.1.86c.3.22.59.46.89.69a35.42,35.42,0,0,1,7.17,7.08h0c.12.16.23.33.34.5.22.33.42.66.61,1l.27.5c.26.51.48,1,.68,1.53a14.52,14.52,0,0,1,.66,2.38,10.4,10.4,0,0,1,.15,1.12c0,.19,0,.38,0,.57S72.37,36,72.37,36.19Z"/><path class="cls-8" d="M56.15,37.87c0,.1,0,.19,0,.28,0-.09,0-.18,0-.28Z"/></g></g></svg>