<svg xmlns="http://www.w3.org/2000/svg" xmlns:xlink="http://www.w3.org/1999/xlink" viewBox="0 0 445.37 445.37"><defs><style>.cls-1{fill:url(#Naamloos_verloop_4);}.cls-2{fill:#fff;}</style><linearGradient id="Naamloos_verloop_4" y1="222.69" x2="445.37" y2="222.69" gradientUnits="userSpaceOnUse"><stop offset="0" stop-color="#66f2d7"/><stop offset="1" stop-color="#7fceff"/></linearGradient></defs><title>header</title><g id="Layer_2" data-name="Layer 2"><g id="Laag_1" data-name="Laag 1"><rect class="cls-1" width="445.37" height="445.37" transform="translate(445.37 0) rotate(90)"/><path class="cls-2" d="M191.65,415.17c-42.44-46-74.91-85.68-74.91-142.06,0-126,102.55-228.59,228.59-228.59,40.6,0,56.58,21.82,78.7,52,6.37,8.69,13.31,18.17,21.34,27.56V86.82L442.56,83c-23.15-31.59-45-61.43-97.23-61.43-138.71,0-251.55,112.85-251.55,251.55,0,69.83,44.92,118.51,81,157.62,4.55,4.93,9.17,9.83,13.87,14.64h32.86C211.58,436.17,201.69,426.05,191.65,415.17Z"/><path class="cls-2" d="M48.8,273.11c0-122.56,74.74-228,181-273.11H179.71C87.53,56.11,25.84,157.54,25.84,273.11c0,72.63,38.64,127.41,77.89,172.26H134.6C85.24,390.83,48.8,341.56,48.8,273.11Z"/><path class="cls-2" d="M411.22,0c12.39,10.77,22.92,24.54,34.15,39.82V2.34c-.66-.79-1.34-1.56-2-2.34Z"/><path class="cls-2" d="M445.37,419.15V390.26a153.55,153.55,0,0,1-100,36.82c-40.94,0-70.91-23.39-103.29-58.49-28.71-31.13-50.66-57.92-50.66-95.48,0-84.9,69.06-154,154-154,26.16,0,36.19,13.68,51.35,34.39,6.55,8.94,14,19.06,23.49,28.53,7.58,7.53,16.41,14.62,25.2,21.48V174c-3.19-2.72-6.22-5.46-9-8.25-8.25-8.2-14.81-17.15-21.14-25.81-15.78-21.53-32.08-43.79-69.88-43.79-97.55,0-176.92,79.37-176.92,176.92,0,49.51,31.47,83.63,56.76,111,24.32,26.37,51.53,51.21,86.62,61.22h74.08A176.07,176.07,0,0,0,445.37,419.15Z"/></g></g></svg>