<svg xmlns="http://www.w3.org/2000/svg" xmlns:xlink="http://www.w3.org/1999/xlink" viewBox="0 0 36.41 72.37"><defs><style>.cls-1{fill:url(#Naamloos_verloop_4);}.cls-2{fill:url(#Naamloos_verloop_4-2);}.cls-3{fill:url(#Naamloos_verloop_4-3);}</style><linearGradient id="Naamloos_verloop_4" y1="36.19" x2="36.41" y2="36.19" gradientUnits="userSpaceOnUse"><stop offset="0" stop-color="#66f2d7"/><stop offset="1" stop-color="#7fceff"/></linearGradient><linearGradient id="Naamloos_verloop_4-2" x1="7.69" y1="36.18" x2="36.41" y2="36.18" xlink:href="#Naamloos_verloop_4"/><linearGradient id="Naamloos_verloop_4-3" x1="16.15" y1="36.19" x2="36.41" y2="36.19" xlink:href="#Naamloos_verloop_4"/></defs><title>hero_dashboard_1</title><g id="Layer_2" data-name="Layer 2"><g id="Laag_1" data-name="Laag 1"><path class="cls-1" d="M36.41,69.76h-.22c-9,0-15.58-5.07-22.61-12.69-6.22-6.75-11-12.57-11-20.9A33.63,33.63,0,0,1,36.19,2.6h.22V0h-.22A36.22,36.22,0,0,0,0,36.18c0,10,6.47,17,11.67,22.66,6.48,7,13.94,13.53,24.52,13.53h.22Z"/><path class="cls-2" d="M36.41,62.07h-.22c-6.95,0-12-3.92-17.41-9.81C14,47.06,10.3,42.57,10.3,36.18A25.92,25.92,0,0,1,36.19,10.29h.22V7.7h-.22A28.54,28.54,0,0,0,7.69,36.18c0,7.91,5.09,13.43,9.18,17.86,5.09,5.52,11,10.64,19.32,10.64h.22Z"/><path class="cls-3" d="M36.41,53.61h-.22c-4.64,0-8-2.65-11.7-6.62-3.26-3.53-5.74-6.56-5.74-10.82A17.45,17.45,0,0,1,36.19,18.75h.22v-2.6h-.22a20.06,20.06,0,0,0-20,20c0,5.61,3.56,9.48,6.43,12.58,3.57,3.88,7.69,7.46,13.61,7.46h.22Z"/></g></g></svg>