<svg xmlns="http://www.w3.org/2000/svg" viewBox="0 0 94.97 94.97"><defs><style>.cls-1{fill:#72e0eb;}.cls-2{fill:#fff;}</style></defs><title>profilePic</title><g id="Layer_2" data-name="Layer 2"><g id="Laag_1" data-name="Laag 1"><rect class="cls-1" width="94.97" height="94.97" rx="47.49"/><path class="cls-2" d="M45.9,68.58c-6.18,0-10.53-3.79-14.3-7.88-3-3.28-6.79-7.36-6.79-13.21A21.12,21.12,0,0,1,45.9,26.39c4.38,0,6.21,2.51,8.15,5.15a26.09,26.09,0,0,0,2.62,3.2A36.71,36.71,0,0,0,60,37.55c3.27,2.54,7,5.42,7,9.94A21.11,21.11,0,0,1,45.9,68.58Zm0-40.26A19.19,19.19,0,0,0,26.73,47.49c0,4.72,2.73,8,6.28,11.91,4,4.35,7.75,7.25,12.89,7.25A19.18,19.18,0,0,0,65.07,47.49c0-3.58-3-5.93-6.23-8.42a39.81,39.81,0,0,1-3.53-3,28.27,28.27,0,0,1-2.81-3.42C50.65,30.15,49.3,28.32,45.9,28.32Z"/><path class="cls-2" d="M45.9,62.32c-4.38,0-7.43-2.65-10.07-5.52-2.12-2.3-4.76-5.16-4.76-9.31A14.85,14.85,0,0,1,45.9,32.65c3.17,0,4.54,1.87,5.86,3.67a17.53,17.53,0,0,0,1.77,2.17,26,26,0,0,0,2.29,1.91c2.3,1.79,4.92,3.82,4.92,7.09A14.85,14.85,0,0,1,45.9,62.32Zm0-27.74A12.92,12.92,0,0,0,33,47.49c0,3.15,1.84,5.39,4.25,8C40,58.44,42.47,60.4,45.9,60.4A12.93,12.93,0,0,0,58.81,47.49c0-2.32-2-3.9-4.17-5.57a26.36,26.36,0,0,1-2.46-2.07,19.09,19.09,0,0,1-2-2.39C48.94,35.72,48.09,34.58,45.9,34.58Z"/><path class="cls-2" d="M45.9,74.28c-7.83,0-13.35-4.82-18.15-10-3.85-4.17-8.64-9.37-8.64-16.77A26.82,26.82,0,0,1,45.9,20.7c5.48,0,7.79,3.15,10.24,6.49a33.22,33.22,0,0,0,3.39,4.13A46.87,46.87,0,0,0,63.85,35c4.35,3.38,8.84,6.87,8.84,12.54A26.82,26.82,0,0,1,45.9,74.28Zm0-51.66A24.89,24.89,0,0,0,21,47.49C21,53.65,24.56,58,29.17,63c5.2,5.64,10,9.4,16.73,9.4A24.89,24.89,0,0,0,70.77,47.49c0-4.73-4.12-7.93-8.1-11a49.62,49.62,0,0,1-4.5-3.78,35.22,35.22,0,0,1-3.58-4.36C52.25,25.14,50.41,22.62,45.9,22.62Z"/><path class="cls-2" d="M45.9,68.58c-6.18,0-10.53-3.79-14.3-7.88-3-3.28-6.79-7.36-6.79-13.21A21.12,21.12,0,0,1,45.9,26.39c4.38,0,6.21,2.51,8.15,5.15a26.09,26.09,0,0,0,2.62,3.2A36.71,36.71,0,0,0,60,37.55c.83.64,1.68,1.3,2.48,2L61.24,41c-.76-.66-1.59-1.31-2.4-1.93a39.81,39.81,0,0,1-3.53-3,28.27,28.27,0,0,1-2.81-3.42c-1.85-2.53-3.2-4.36-6.6-4.36A19.19,19.19,0,0,0,26.73,47.49c0,4.72,2.73,8,6.28,11.91,4,4.35,7.75,7.25,12.89,7.25A19.18,19.18,0,0,0,65.07,47.49,6.23,6.23,0,0,0,65,46.34L66.85,46A7.51,7.51,0,0,1,67,47.49,21.11,21.11,0,0,1,45.9,68.58Z"/><path class="cls-2" d="M45.9,62.32c-4.38,0-7.43-2.65-10.07-5.52-2.12-2.3-4.76-5.16-4.76-9.31A14.85,14.85,0,0,1,45.9,32.65c3.17,0,4.54,1.87,5.86,3.67a17.53,17.53,0,0,0,1.77,2.17,27.31,27.31,0,0,0,2.28,1.91c.45.35.9.69,1.33,1.05l-1.23,1.48-1.28-1a27.57,27.57,0,0,1-2.45-2.07,19.09,19.09,0,0,1-2-2.39c-1.27-1.74-2.12-2.88-4.31-2.88A12.92,12.92,0,0,0,33,47.49c0,3.15,1.84,5.39,4.25,8C40,58.44,42.47,60.4,45.9,60.4A12.9,12.9,0,0,0,58.8,48.11l1.92.1A14.81,14.81,0,0,1,45.9,62.32Z"/><path class="cls-2" d="M45.9,74.28c-7.83,0-13.35-4.82-18.15-10-3.85-4.17-8.64-9.37-8.64-16.77A26.82,26.82,0,0,1,45.9,20.7c5.48,0,7.79,3.15,10.24,6.49a33.22,33.22,0,0,0,3.39,4.13A46.87,46.87,0,0,0,63.85,35l1.47,1.15-1.19,1.51-1.46-1.14a49.62,49.62,0,0,1-4.5-3.78,35.22,35.22,0,0,1-3.58-4.36c-2.34-3.19-4.18-5.71-8.69-5.71A24.89,24.89,0,0,0,21,47.49C21,53.65,24.56,58,29.17,63c5.2,5.64,10,9.4,16.73,9.4A24.89,24.89,0,0,0,70.77,47.49a8.56,8.56,0,0,0-1.71-5.05l1.58-1.1a10.41,10.41,0,0,1,2,6.15A26.82,26.82,0,0,1,45.9,74.28Z"/><path class="cls-2" d="M69.2,70.77a3.52,3.52,0,0,1,.27-1.37,3.29,3.29,0,0,1,.73-1.12,3.33,3.33,0,0,1,1.1-.76,3.52,3.52,0,0,1,2.75,0,3.64,3.64,0,0,1,1.12.76,3.18,3.18,0,0,1,.74,1.12,3.52,3.52,0,0,1,.27,1.37,3.48,3.48,0,0,1-.27,1.39,3.32,3.32,0,0,1-.74,1.11,3.58,3.58,0,0,1-1.12.74,3.64,3.64,0,0,1-2.75,0,3.28,3.28,0,0,1-1.1-.74,3.54,3.54,0,0,1-1-2.5Z"/></g></g></svg>